<svg width="22" height="19" viewBox="0 0 22 19" fill="none" xmlns="http://www.w3.org/2000/svg">
<mask id="path-1-inside-1_1023_444" fill="white">
<path d="M9.28978 1.35996L0.819777 15.5C0.645145 15.8024 0.552743 16.1453 0.551766 16.4945C0.550788 16.8437 0.641268 17.1871 0.814203 17.4905C0.987139 17.7939 1.2365 18.0467 1.53748 18.2238C1.83847 18.4009 2.18058 18.4961 2.52978 18.5H19.4698C19.819 18.4961 20.1611 18.4009 20.4621 18.2238C20.7631 18.0467 21.0124 17.7939 21.1854 17.4905C21.3583 17.1871 21.4488 16.8437 21.4478 16.4945C21.4468 16.1453 21.3544 15.8024 21.1798 15.5L12.7098 1.35996C12.5315 1.06607 12.2805 0.82308 11.981 0.654444C11.6814 0.485809 11.3435 0.397217 10.9998 0.397217C10.656 0.397217 10.3181 0.485809 10.0186 0.654444C9.71906 0.82308 9.46805 1.06607 9.28978 1.35996Z"/>
<path d="M11.9998 14.5C11.9998 15.0523 11.552 15.5 10.9998 15.5C10.4475 15.5 9.99976 15.0523 9.99976 14.5C9.99976 13.9477 10.4475 13.5 10.9998 13.5C11.552 13.5 11.9998 13.9477 11.9998 14.5Z"/>
</mask>
<path d="M11.4998 6.49996C11.4998 6.22382 11.2759 5.99996 10.9998 5.99996C10.7236 5.99996 10.4998 6.22382 10.4998 6.49996H11.4998ZM10.4998 10.5C10.4998 10.7761 10.7236 11 10.9998 11C11.2759 11 11.4998 10.7761 11.4998 10.5H10.4998ZM10.4998 6.49996V10.5H11.4998V6.49996H10.4998ZM9.28978 1.35996L8.43476 0.841325L8.43191 0.84609L9.28978 1.35996ZM0.819777 15.5L-0.0380907 14.9861C-0.0408352 14.9907 -0.043543 14.9953 -0.0462138 14.9999L0.819777 15.5ZM2.52978 18.5L2.51879 19.5H2.52978V18.5ZM19.4698 18.5V19.5L19.4808 19.4999L19.4698 18.5ZM21.1798 15.5L22.0458 14.9999C22.0431 14.9953 22.0404 14.9907 22.0376 14.9861L21.1798 15.5ZM12.7098 1.35996L13.5677 0.846082L13.5648 0.841333L12.7098 1.35996ZM10.9998 0.397217V-0.602783V0.397217ZM8.43191 0.84609L-0.0380907 14.9861L1.67764 16.0138L10.1476 1.87383L8.43191 0.84609ZM-0.0462138 14.9999C-0.308161 15.4535 -0.446764 15.9678 -0.44823 16.4917L1.55176 16.4973C1.55225 16.3227 1.59845 16.1512 1.68577 16L-0.0462138 14.9999ZM-0.44823 16.4917C-0.449697 17.0155 -0.313978 17.5306 -0.0545741 17.9857L1.68298 16.9953C1.59651 16.8436 1.55127 16.6719 1.55176 16.4973L-0.44823 16.4917ZM-0.0545741 17.9857C0.204829 18.4408 0.578874 18.82 1.03035 19.0857L2.04462 17.3619C1.89413 17.2734 1.76945 17.147 1.68298 16.9953L-0.0545741 17.9857ZM1.03035 19.0857C1.48182 19.3513 1.99498 19.4941 2.51879 19.4999L2.54077 17.5C2.36617 17.4981 2.19512 17.4505 2.04462 17.3619L1.03035 19.0857ZM2.52978 19.5H19.4698V17.5H2.52978V19.5ZM19.4808 19.4999C20.0046 19.4941 20.5177 19.3513 20.9692 19.0857L19.9549 17.3619C19.8044 17.4505 19.6334 17.4981 19.4588 17.5L19.4808 19.4999ZM20.9692 19.0857C21.4207 18.82 21.7947 18.4408 22.0541 17.9857L20.3166 16.9953C20.2301 17.147 20.1054 17.2734 19.9549 17.3619L20.9692 19.0857ZM22.0541 17.9857C22.3135 17.5306 22.4493 17.0155 22.4478 16.4917L20.4478 16.4973C20.4483 16.6719 20.403 16.8436 20.3166 16.9953L22.0541 17.9857ZM22.4478 16.4917C22.4463 15.9678 22.3077 15.4535 22.0458 14.9999L20.3138 16C20.4011 16.1512 20.4473 16.3227 20.4478 16.4973L22.4478 16.4917ZM22.0376 14.9861L13.5676 0.84609L11.8519 1.87383L20.3219 16.0138L22.0376 14.9861ZM13.5648 0.841333C13.2974 0.400492 12.9209 0.0360118 12.4716 -0.216942L11.4904 1.52583C11.6401 1.61015 11.7656 1.73164 11.8548 1.87859L13.5648 0.841333ZM12.4716 -0.216942C12.0223 -0.469895 11.5154 -0.602783 10.9998 -0.602783V1.39722C11.1716 1.39722 11.3406 1.44151 11.4904 1.52583L12.4716 -0.216942ZM10.9998 -0.602783C10.4842 -0.602783 9.97727 -0.469895 9.52798 -0.216942L10.5092 1.52583C10.6589 1.44151 10.8279 1.39722 10.9998 1.39722V-0.602783ZM9.52798 -0.216942C9.07869 0.0360118 8.70218 0.400492 8.43478 0.841333L10.1448 1.87859C10.2339 1.73164 10.3594 1.61015 10.5092 1.52583L9.52798 -0.216942ZM10.9998 14.5V16.5C12.1043 16.5 12.9998 15.6046 12.9998 14.5H10.9998ZM10.9998 14.5H8.99976C8.99976 15.6046 9.89519 16.5 10.9998 16.5V14.5ZM10.9998 14.5V12.5C9.89519 12.5 8.99976 13.3954 8.99976 14.5H10.9998ZM10.9998 14.5H12.9998C12.9998 13.3954 12.1043 12.5 10.9998 12.5V14.5Z" fill="#0B0A0A" mask="url(#path-1-inside-1_1023_444)"/>
</svg>
