<svg width="22" height="24" viewBox="0 0 22 24" fill="none" xmlns="http://www.w3.org/2000/svg">
<path fill-rule="evenodd" clip-rule="evenodd" d="M3.12493 8.5C3.12493 6.41142 3.95461 4.40838 5.43146 2.93153C6.90831 1.45469 8.91135 0.625 10.9999 0.625C13.0885 0.625 15.0915 1.45469 16.5684 2.93153C18.0452 4.40838 18.8749 6.41142 18.8749 8.5V9.375C18.8749 11.8518 19.8083 14.1082 21.3459 15.815C21.4417 15.9212 21.51 16.0492 21.5449 16.1878C21.5798 16.3265 21.5801 16.4716 21.5459 16.6104C21.5117 16.7492 21.444 16.8776 21.3488 16.9842C21.2535 17.0908 21.1336 17.1725 20.9994 17.222C19.1981 17.887 17.3128 18.377 15.3633 18.6722C15.4072 19.272 15.3269 19.8744 15.1275 20.4419C14.9281 21.0093 14.6139 21.5295 14.2044 21.97C13.795 22.4105 13.2991 22.7619 12.7477 23.0022C12.1963 23.2425 11.6014 23.3665 10.9999 23.3665C10.3985 23.3665 9.80352 23.2425 9.25216 23.0022C8.7008 22.7619 8.2049 22.4105 7.79544 21.97C7.38597 21.5295 7.07173 21.0093 6.87234 20.4419C6.67295 19.8744 6.5927 19.272 6.63659 18.6722C4.71352 18.3807 2.82508 17.8945 1.00043 17.2208C0.866417 17.1714 0.746557 17.0898 0.651316 16.9834C0.556075 16.8769 0.48835 16.7487 0.454056 16.61C0.419761 16.4714 0.419941 16.3264 0.454578 16.1878C0.489215 16.0492 0.557257 15.9212 0.652761 15.815C2.24737 14.0495 3.12852 11.7541 3.12493 9.375V8.5ZM8.37726 18.8833C8.36234 19.2371 8.41912 19.5901 8.54419 19.9213C8.66927 20.2526 8.86005 20.555 9.10505 20.8106C9.35006 21.0662 9.64423 21.2695 9.96987 21.4084C10.2955 21.5474 10.6459 21.619 10.9999 21.619C11.354 21.619 11.7043 21.5474 12.03 21.4084C12.3556 21.2695 12.6498 21.0662 12.8948 20.8106C13.1398 20.555 13.3306 20.2526 13.4557 19.9213C13.5807 19.5901 13.6375 19.2371 13.6226 18.8833C11.8777 19.0405 10.1222 19.0405 8.37726 18.8833Z" fill="#171717"/>
</svg>
