<svg width="40" height="40" viewBox="0 0 40 40" fill="none" xmlns="http://www.w3.org/2000/svg">
<path d="M5.625 7.5C3.89833 7.5 2.5 8.9 2.5 10.625V22.5H22.5V10.625C22.5 8.89833 21.1 7.5 19.375 7.5H5.625ZM22.5 25H2.5V29.375C2.5 31.1 3.9 32.5 5.625 32.5H6.25C6.25 31.1739 6.77678 29.9021 7.71447 28.9645C8.65215 28.0268 9.92392 27.5 11.25 27.5C12.5761 27.5 13.8479 28.0268 14.7855 28.9645C15.7232 29.9021 16.25 31.1739 16.25 32.5H21.25C21.5815 32.5 21.8995 32.3683 22.1339 32.1339C22.3683 31.8995 22.5 31.5815 22.5 31.25V25Z" fill="#F9F9F9"/>
<path d="M13.75 32.5C13.75 31.837 13.4866 31.2011 13.0178 30.7323C12.5489 30.2634 11.913 30 11.25 30C10.587 30 9.95107 30.2634 9.48223 30.7323C9.01339 31.2011 8.75 31.837 8.75 32.5C8.75 33.1631 9.01339 33.799 9.48223 34.2678C9.95107 34.7366 10.587 35 11.25 35C11.913 35 12.5489 34.7366 13.0178 34.2678C13.4866 33.799 13.75 33.1631 13.75 32.5ZM26.25 11.25C25.9185 11.25 25.6005 11.3817 25.3661 11.6161C25.1317 11.8506 25 12.1685 25 12.5V31.25C25 31.395 25.025 31.5334 25.07 31.6634C25.2777 30.432 25.9387 29.3229 26.923 28.5543C27.9073 27.7857 29.1435 27.4132 30.3886 27.5102C31.6336 27.6071 32.7973 28.1665 33.6507 29.0782C34.5041 29.9899 34.9854 31.188 35 32.4367C36.4217 32.145 37.5367 30.8784 37.44 29.2984C37.0672 23.1956 34.9037 17.3382 31.22 12.4584C30.933 12.081 30.5624 11.7755 30.1372 11.5658C29.7121 11.3561 29.244 11.248 28.77 11.25H26.25Z" fill="#F9F9F9"/>
<path d="M32.5 32.5C32.5 31.837 32.2366 31.2011 31.7678 30.7322C31.2989 30.2634 30.663 30 30 30C29.337 30 28.7011 30.2634 28.2322 30.7322C27.7634 31.2011 27.5 31.837 27.5 32.5C27.5 33.163 27.7634 33.7989 28.2322 34.2678C28.7011 34.7366 29.337 35 30 35C30.663 35 31.2989 34.7366 31.7678 34.2678C32.2366 33.7989 32.5 33.163 32.5 32.5Z" fill="#F9F9F9"/>
</svg>
