<svg width="24" height="24" viewBox="0 0 24 24" fill="none" xmlns="http://www.w3.org/2000/svg">
<path d="M12 9C11.0054 9 10.0516 9.39509 9.34835 10.0983C8.64509 10.8016 8.25 11.7554 8.25 12.75C8.25 13.7446 8.64509 14.6984 9.34835 15.4017C10.0516 16.1049 11.0054 16.5 12 16.5C12.9946 16.5 13.9484 16.1049 14.6517 15.4017C15.3549 14.6984 15.75 13.7446 15.75 12.75C15.75 11.7554 15.3549 10.8016 14.6517 10.0983C13.9484 9.39509 12.9946 9 12 9Z" fill="#171717"/>
<path fill-rule="evenodd" clip-rule="evenodd" d="M9.344 3.07097C11.1134 2.97594 12.8866 2.97594 14.656 3.07097C15.623 3.12297 16.486 3.65597 16.988 4.46097L17.809 5.77797C18.049 6.16097 18.454 6.42097 18.919 6.48797C19.305 6.54197 19.689 6.60097 20.071 6.66497C21.503 6.90397 22.5 8.15797 22.5 9.57397V18C22.5 18.7956 22.1839 19.5587 21.6213 20.1213C21.0587 20.6839 20.2956 21 19.5 21H4.5C3.70435 21 2.94129 20.6839 2.37868 20.1213C1.81607 19.5587 1.5 18.7956 1.5 18V9.57397C1.5 8.15797 2.497 6.90397 3.929 6.66497C4.311 6.60097 4.695 6.54197 5.08 6.48697C5.30561 6.45678 5.52189 6.37757 5.71364 6.25492C5.9054 6.13227 6.06799 5.96913 6.19 5.77697L7.012 4.46197C7.2605 4.06003 7.60216 3.72385 8.00808 3.4819C8.414 3.23995 8.87223 3.09834 9.344 3.07097ZM6.75 12.75C6.75 11.3576 7.30312 10.0222 8.28769 9.03766C9.27225 8.0531 10.6076 7.49997 12 7.49997C13.3924 7.49997 14.7277 8.0531 15.7123 9.03766C16.6969 10.0222 17.25 11.3576 17.25 12.75C17.25 14.1424 16.6969 15.4777 15.7123 16.4623C14.7277 17.4468 13.3924 18 12 18C10.6076 18 9.27225 17.4468 8.28769 16.4623C7.30312 15.4777 6.75 14.1424 6.75 12.75ZM18.75 11.25C18.9489 11.25 19.1397 11.171 19.2803 11.0303C19.421 10.8897 19.5 10.6989 19.5 10.5C19.5 10.3011 19.421 10.1103 19.2803 9.96964C19.1397 9.82899 18.9489 9.74997 18.75 9.74997C18.5511 9.74997 18.3603 9.82899 18.2197 9.96964C18.079 10.1103 18 10.3011 18 10.5C18 10.6989 18.079 10.8897 18.2197 11.0303C18.3603 11.171 18.5511 11.25 18.75 11.25Z" fill="#171717"/>
</svg>
