<svg width="32" height="32" viewBox="0 0 32 32" fill="none" xmlns="http://www.w3.org/2000/svg">
<path d="M2.66943 16.0029C2.67098 22.5621 7.44064 28.1469 13.9188 29.1749V19.8562H10.5361V16.0029H13.9228V13.0696C13.7714 11.6796 14.2461 10.2943 15.2183 9.28946C16.1904 8.28458 17.5592 7.76424 18.9534 7.86956C19.9541 7.88572 20.9524 7.97484 21.9401 8.13622V11.4149H20.2548C19.6746 11.3389 19.0912 11.5305 18.6691 11.9358C18.247 12.341 18.0318 12.9161 18.0841 13.4989V16.0029H21.7788L21.1881 19.8576H18.0841V29.1749C25.0901 28.0677 30.0029 21.6693 29.2634 14.615C28.524 7.56071 22.3912 2.32013 15.3079 2.68979C8.22458 3.05946 2.67056 8.90997 2.66943 16.0029Z" fill="#0B0A0A"/>
</svg>
