<svg width="32" height="32" viewBox="0 0 32 32" fill="none" xmlns="http://www.w3.org/2000/svg">
<path d="M16.0024 28.0548C12.7224 28.0548 12.3358 28.0375 11.0558 27.9815C10.0576 27.9487 9.07235 27.7458 8.14244 27.3815C6.53352 26.7554 5.2613 25.4827 4.63577 23.8735C4.28552 22.9402 4.0966 21.9542 4.07711 20.9575C4.00244 19.6802 4.00244 19.2615 4.00244 16.0068C4.00244 12.7175 4.01977 12.3335 4.07711 11.0602C4.09702 10.0649 4.28594 9.08018 4.63577 8.14817C5.26062 6.53688 6.53491 5.26307 8.14644 4.63884C9.07797 4.28711 10.0629 4.0977 11.0584 4.07884C12.3318 4.00684 12.7504 4.00684 16.0024 4.00684C19.3091 4.00684 19.6891 4.02417 20.9491 4.07884C21.9472 4.09786 22.9348 4.28725 23.8691 4.63884C25.4802 5.26377 26.7542 6.53734 27.3798 8.14817C27.7359 9.09376 27.9259 10.0938 27.9411 11.1042C28.0158 12.3815 28.0158 12.7988 28.0158 16.0522C28.0158 19.3055 27.9971 19.7322 27.9411 20.9948C27.9213 21.9924 27.7319 22.9794 27.3811 23.9135C26.754 25.5238 25.4799 26.7969 23.8691 27.4228C22.9361 27.7724 21.9506 27.9613 20.9544 27.9815C19.6811 28.0548 19.2638 28.0548 16.0024 28.0548ZM15.9571 6.1175C12.6958 6.1175 12.3571 6.1335 11.0838 6.19084C10.3238 6.2009 9.57108 6.34116 8.85844 6.6055C7.80611 7.00818 6.97341 7.83749 6.56644 8.88817C6.30006 9.60857 6.15979 10.3695 6.15177 11.1375C6.08111 12.4295 6.08111 12.7682 6.08111 16.0068C6.08111 19.2068 6.09311 19.5948 6.15177 20.8788C6.16371 21.6391 6.3039 22.3919 6.56644 23.1055C6.97401 24.1555 7.80657 24.9842 8.85844 25.3868C9.57059 25.6529 10.3236 25.7932 11.0838 25.8015C12.3744 25.8762 12.7144 25.8762 15.9571 25.8762C19.2278 25.8762 19.5664 25.8602 20.8291 25.8015C21.5896 25.7922 22.3429 25.652 23.0558 25.3868C24.1017 24.9807 24.929 24.1539 25.3358 23.1082C25.6016 22.3872 25.7419 21.6259 25.7504 20.8575H25.7651C25.8224 19.5828 25.8224 19.2428 25.8224 15.9855C25.8224 12.7282 25.8078 12.3855 25.7504 11.1122C25.7385 10.3528 25.5983 9.60085 25.3358 8.88817C24.9299 7.84093 24.1025 7.01256 23.0558 6.6055C22.343 6.33982 21.5897 6.19953 20.8291 6.19084C19.5398 6.1175 19.2024 6.1175 15.9571 6.1175ZM16.0024 22.1655C13.5091 22.1671 11.2603 20.6665 10.3049 18.3634C9.34952 16.0604 9.87565 13.4086 11.638 11.6448C13.4003 9.88096 16.0516 9.35253 18.3555 10.3059C20.6593 11.2594 22.1619 13.5068 22.1624 16.0002C22.1588 19.4016 19.4039 22.1589 16.0024 22.1655ZM16.0024 11.9975C13.7933 11.9975 12.0024 13.7884 12.0024 15.9975C12.0024 18.2066 13.7933 19.9975 16.0024 19.9975C18.2116 19.9975 20.0024 18.2066 20.0024 15.9975C19.9973 13.7905 18.2095 12.0026 16.0024 11.9975ZM22.4024 11.0468C21.6097 11.0439 20.969 10.3996 20.9704 9.60685C20.9719 8.81407 21.615 8.17218 22.4078 8.17218C23.2005 8.17218 23.8436 8.81406 23.8451 9.60684C23.8455 9.98932 23.6935 10.3562 23.4228 10.6264C23.1521 10.8966 22.7849 11.0479 22.4024 11.0468Z" fill="#0B0A0A"/>
</svg>
