<svg width="24" height="24" viewBox="0 0 24 24" fill="none" xmlns="http://www.w3.org/2000/svg">
<path fill-rule="evenodd" clip-rule="evenodd" d="M7.5 3.75C7.10218 3.75 6.72064 3.90804 6.43934 4.18934C6.15804 4.47064 6 4.85218 6 5.25V18.75C6 19.1478 6.15804 19.5294 6.43934 19.8107C6.72064 20.092 7.10218 20.25 7.5 20.25H13.5C13.8978 20.25 14.2794 20.092 14.5607 19.8107C14.842 19.5294 15 19.1478 15 18.75V15C15 14.8011 15.079 14.6103 15.2197 14.4697C15.3603 14.329 15.5511 14.25 15.75 14.25C15.9489 14.25 16.1397 14.329 16.2803 14.4697C16.421 14.6103 16.5 14.8011 16.5 15V18.75C16.5 19.5456 16.1839 20.3087 15.6213 20.8713C15.0587 21.4339 14.2956 21.75 13.5 21.75H7.5C6.70435 21.75 5.94129 21.4339 5.37868 20.8713C4.81607 20.3087 4.5 19.5456 4.5 18.75V5.25C4.5 4.45435 4.81607 3.69129 5.37868 3.12868C5.94129 2.56607 6.70435 2.25 7.5 2.25H13.5C14.2956 2.25 15.0587 2.56607 15.6213 3.12868C16.1839 3.69129 16.5 4.45435 16.5 5.25V9C16.5 9.19891 16.421 9.38968 16.2803 9.53033C16.1397 9.67098 15.9489 9.75 15.75 9.75C15.5511 9.75 15.3603 9.67098 15.2197 9.53033C15.079 9.38968 15 9.19891 15 9V5.25C15 4.85218 14.842 4.47064 14.5607 4.18934C14.2794 3.90804 13.8978 3.75 13.5 3.75H7.5ZM18.22 8.47C18.3606 8.32955 18.5512 8.25066 18.75 8.25066C18.9488 8.25066 19.1394 8.32955 19.28 8.47L22.28 11.47C22.4205 11.6106 22.4993 11.8012 22.4993 12C22.4993 12.1988 22.4205 12.3894 22.28 12.53L19.28 15.53C19.2113 15.6037 19.1285 15.6628 19.0365 15.7038C18.9445 15.7448 18.8452 15.7668 18.7445 15.7686C18.6438 15.7704 18.5438 15.7518 18.4504 15.7141C18.357 15.6764 18.2722 15.6203 18.201 15.549C18.1297 15.4778 18.0736 15.393 18.0359 15.2996C17.9982 15.2062 17.9796 15.1062 17.9814 15.0055C17.9832 14.9048 18.0052 14.8055 18.0462 14.7135C18.0872 14.6215 18.1463 14.5387 18.22 14.47L19.94 12.75H9C8.80109 12.75 8.61032 12.671 8.46967 12.5303C8.32902 12.3897 8.25 12.1989 8.25 12C8.25 11.8011 8.32902 11.6103 8.46967 11.4697C8.61032 11.329 8.80109 11.25 9 11.25H19.94L18.22 9.53C18.0795 9.38937 18.0007 9.19875 18.0007 9C18.0007 8.80125 18.0795 8.61063 18.22 8.47Z" fill="#888888"/>
</svg>
