<svg width="40" height="40" viewBox="0 0 40 40" fill="none" xmlns="http://www.w3.org/2000/svg">
<rect width="40" height="40" rx="20" fill="#F9F9F9"/>
<path fill-rule="evenodd" clip-rule="evenodd" d="M11 14.75C11 14.5511 11.079 14.3603 11.2197 14.2197C11.3603 14.079 11.5511 14 11.75 14H28.25C28.4489 14 28.6397 14.079 28.7803 14.2197C28.921 14.3603 29 14.5511 29 14.75C29 14.9489 28.921 15.1397 28.7803 15.2803C28.6397 15.421 28.4489 15.5 28.25 15.5H11.75C11.5511 15.5 11.3603 15.421 11.2197 15.2803C11.079 15.1397 11 14.9489 11 14.75ZM11 20C11 19.8011 11.079 19.6103 11.2197 19.4697C11.3603 19.329 11.5511 19.25 11.75 19.25H28.25C28.4489 19.25 28.6397 19.329 28.7803 19.4697C28.921 19.6103 29 19.8011 29 20C29 20.1989 28.921 20.3897 28.7803 20.5303C28.6397 20.671 28.4489 20.75 28.25 20.75H11.75C11.5511 20.75 11.3603 20.671 11.2197 20.5303C11.079 20.3897 11 20.1989 11 20ZM11 25.25C11 25.0511 11.079 24.8603 11.2197 24.7197C11.3603 24.579 11.5511 24.5 11.75 24.5H28.25C28.4489 24.5 28.6397 24.579 28.7803 24.7197C28.921 24.8603 29 25.0511 29 25.25C29 25.4489 28.921 25.6397 28.7803 25.7803C28.6397 25.921 28.4489 26 28.25 26H11.75C11.5511 26 11.3603 25.921 11.2197 25.7803C11.079 25.6397 11 25.4489 11 25.25Z" fill="#171717"/>
</svg>
