<svg width="80" height="80" viewBox="0 0 80 80" fill="none" xmlns="http://www.w3.org/2000/svg">
<path fill-rule="evenodd" clip-rule="evenodd" d="M16.16 9.23667C24.0538 8.07801 32.0216 7.49757 40 7.50001C48.1 7.50001 56.0567 8.09334 63.84 9.23334C70.4333 10.2067 75 15.98 75 22.4667V42.5333C75 49.02 70.4333 54.7933 63.84 55.7667C59.9942 56.3302 56.1295 56.7561 52.2533 57.0433C52.0561 57.0563 51.8644 57.1141 51.6929 57.2123C51.5213 57.3105 51.3744 57.4465 51.2633 57.61L42.08 71.3867C41.8517 71.7291 41.5424 72.0098 41.1795 72.204C40.8167 72.3981 40.4115 72.4997 40 72.4997C39.5885 72.4997 39.1833 72.3981 38.8205 72.204C38.4576 72.0098 38.1483 71.7291 37.92 71.3867L28.7367 57.61C28.6256 57.4465 28.4787 57.3105 28.3071 57.2123C28.1356 57.1141 27.9439 57.0563 27.7467 57.0433C23.8704 56.755 20.0057 56.328 16.16 55.7633C9.56667 54.7967 5 49.0167 5 42.53V22.47C5 15.9833 9.56667 10.2033 16.16 9.23667Z" fill="#038437"/>
<path d="M20.9176 25.4545V40H18.7159V27.6562H18.6307L15.1506 29.929V27.8267L18.7798 25.4545H20.9176ZM29.9162 40.2415C28.794 40.2367 27.8352 39.9408 27.0398 39.3537C26.2443 38.7666 25.6359 37.9119 25.2145 36.7898C24.7931 35.6676 24.5824 34.3158 24.5824 32.7344C24.5824 31.1577 24.7931 29.8106 25.2145 28.6932C25.6406 27.5758 26.2514 26.7235 27.0469 26.1364C27.8471 25.5492 28.8035 25.2557 29.9162 25.2557C31.0289 25.2557 31.983 25.5516 32.7784 26.1435C33.5739 26.7306 34.1823 27.5829 34.6037 28.7003C35.0298 29.813 35.2429 31.1577 35.2429 32.7344C35.2429 34.3205 35.0322 35.6747 34.6108 36.7969C34.1894 37.9143 33.581 38.7689 32.7855 39.3608C31.9901 39.9479 31.0336 40.2415 29.9162 40.2415ZM29.9162 38.3452C30.901 38.3452 31.6705 37.8646 32.2244 36.9034C32.7831 35.9422 33.0625 34.5526 33.0625 32.7344C33.0625 31.527 32.9347 30.5066 32.679 29.6733C32.428 28.8352 32.0658 28.2008 31.5923 27.7699C31.1236 27.3343 30.5649 27.1165 29.9162 27.1165C28.9361 27.1165 28.1667 27.5994 27.608 28.5653C27.0492 29.5312 26.7675 30.9209 26.7628 32.7344C26.7628 33.9465 26.8883 34.9716 27.1392 35.8097C27.3949 36.643 27.7571 37.2751 28.2259 37.706C28.6946 38.1321 29.258 38.3452 29.9162 38.3452ZM42.8263 40.2415C41.7042 40.2367 40.7454 39.9408 39.9499 39.3537C39.1545 38.7666 38.546 37.9119 38.1246 36.7898C37.7032 35.6676 37.4925 34.3158 37.4925 32.7344C37.4925 31.1577 37.7032 29.8106 38.1246 28.6932C38.5508 27.5758 39.1616 26.7235 39.957 26.1364C40.7572 25.5492 41.7137 25.2557 42.8263 25.2557C43.939 25.2557 44.8931 25.5516 45.6886 26.1435C46.484 26.7306 47.0924 27.5829 47.5138 28.7003C47.94 29.813 48.1531 31.1577 48.1531 32.7344C48.1531 34.3205 47.9424 35.6747 47.521 36.7969C47.0996 37.9143 46.4911 38.7689 45.6957 39.3608C44.9002 39.9479 43.9438 40.2415 42.8263 40.2415ZM42.8263 38.3452C43.8112 38.3452 44.5806 37.8646 45.1346 36.9034C45.6933 35.9422 45.9727 34.5526 45.9727 32.7344C45.9727 31.527 45.8448 30.5066 45.5891 29.6733C45.3382 28.8352 44.976 28.2008 44.5025 27.7699C44.0337 27.3343 43.475 27.1165 42.8263 27.1165C41.8462 27.1165 41.0768 27.5994 40.5181 28.5653C39.9594 29.5312 39.6777 30.9209 39.6729 32.7344C39.6729 33.9465 39.7984 34.9716 40.0494 35.8097C40.305 36.643 40.6673 37.2751 41.136 37.706C41.6048 38.1321 42.1682 38.3452 42.8263 38.3452ZM58.2649 37.2727V36.5057C58.2649 35.9564 58.3786 35.4545 58.6058 35C58.8378 34.5407 59.174 34.1738 59.6143 33.8991C60.0594 33.6198 60.5968 33.4801 61.2266 33.4801C61.8705 33.4801 62.4103 33.6174 62.8459 33.892C63.2815 34.1667 63.6106 34.5336 63.8331 34.9929C64.0604 35.4522 64.174 35.9564 64.174 36.5057V37.2727C64.174 37.822 64.0604 38.3262 63.8331 38.7855C63.6058 39.2401 63.272 39.607 62.8317 39.8864C62.3961 40.161 61.861 40.2983 61.2266 40.2983C60.5874 40.2983 60.0476 40.161 59.6072 39.8864C59.1669 39.607 58.8331 39.2401 58.6058 38.7855C58.3786 38.3262 58.2649 37.822 58.2649 37.2727ZM59.9197 36.5057V37.2727C59.9197 37.6799 60.0168 38.0492 60.2109 38.3807C60.4051 38.7121 60.7436 38.8778 61.2266 38.8778C61.7048 38.8778 62.0386 38.7121 62.228 38.3807C62.4174 38.0492 62.5121 37.6799 62.5121 37.2727V36.5057C62.5121 36.0985 62.4197 35.7292 62.2351 35.3977C62.0552 35.0663 61.719 34.9006 61.2266 34.9006C60.7531 34.9006 60.4169 35.0663 60.218 35.3977C60.0192 35.7292 59.9197 36.0985 59.9197 36.5057ZM50.9496 28.9489V28.1818C50.9496 27.6326 51.0632 27.1283 51.2905 26.669C51.5225 26.2098 51.8587 25.8428 52.299 25.5682C52.7441 25.2936 53.2815 25.1562 53.9112 25.1562C54.5552 25.1562 55.0949 25.2936 55.5305 25.5682C55.9661 25.8428 56.2952 26.2098 56.5178 26.669C56.7403 27.1283 56.8516 27.6326 56.8516 28.1818V28.9489C56.8516 29.4981 56.7379 30.0024 56.5107 30.4616C56.2881 30.9162 55.9567 31.2831 55.5163 31.5625C55.0807 31.8371 54.5457 31.9744 53.9112 31.9744C53.2673 31.9744 52.7251 31.8371 52.2848 31.5625C51.8492 31.2831 51.5178 30.9162 51.2905 30.4616C51.0632 30.0024 50.9496 29.4981 50.9496 28.9489ZM52.6115 28.1818V28.9489C52.6115 29.3561 52.7062 29.7254 52.8956 30.0568C53.0897 30.3883 53.4283 30.554 53.9112 30.554C54.3847 30.554 54.7161 30.3883 54.9055 30.0568C55.0997 29.7254 55.1967 29.3561 55.1967 28.9489V28.1818C55.1967 27.7746 55.1044 27.4053 54.9197 27.0739C54.7351 26.7424 54.3989 26.5767 53.9112 26.5767C53.4377 26.5767 53.1016 26.7424 52.9027 27.0739C52.7086 27.4053 52.6115 27.7746 52.6115 28.1818ZM51.6243 40L61.6243 25.4545H63.3217L53.3217 40H51.6243Z" fill="white" fill-opacity="0.93"/>
</svg>
