<svg width="28" height="28" viewBox="0 0 28 28" fill="none" xmlns="http://www.w3.org/2000/svg">
<path d="M18.3751 7C18.3751 8.16032 17.9141 9.27312 17.0936 10.0936C16.2732 10.9141 15.1604 11.375 14.0001 11.375C12.8397 11.375 11.7269 10.9141 10.9065 10.0936C10.086 9.27312 9.62505 8.16032 9.62505 7C9.62505 5.83968 10.086 4.72688 10.9065 3.90641C11.7269 3.08594 12.8397 2.625 14.0001 2.625C15.1604 2.625 16.2732 3.08594 17.0936 3.90641C17.9141 4.72688 18.3751 5.83968 18.3751 7ZM5.25122 23.471C5.28871 21.1754 6.22695 18.9865 7.86359 17.3764C9.50024 15.7663 11.7042 14.8639 14.0001 14.8639C16.296 14.8639 18.4999 15.7663 20.1365 17.3764C21.7732 18.9865 22.7114 21.1754 22.7489 23.471C20.0042 24.7296 17.0196 25.3791 14.0001 25.375C10.8781 25.375 7.91472 24.6937 5.25122 23.471Z" stroke="#9D5C00" stroke-width="1.5" stroke-linecap="round" stroke-linejoin="round"/>
</svg>
