<svg width="24" height="20" viewBox="0 0 24 20" fill="none" xmlns="http://www.w3.org/2000/svg">
<path d="M1 1.99763V7.99763M1 7.99763H7M1 7.99763L5.64 3.63763C6.71475 2.56235 8.04437 1.77684 9.50481 1.35441C10.9652 0.931975 12.5089 0.886385 13.9917 1.22189C15.4745 1.5574 16.8482 2.26307 17.9845 3.27305C19.1209 4.28304 19.9828 5.56442 20.49 6.99763M23 17.9976V11.9976M23 11.9976H17M23 11.9976L18.36 16.3576C17.2853 17.4329 15.9556 18.2184 14.4952 18.6409C13.0348 19.0633 11.4911 19.1089 10.0083 18.7734C8.52547 18.4379 7.1518 17.7322 6.01547 16.7222C4.87913 15.7122 4.01717 14.4308 3.51 12.9976" stroke="#171717" stroke-linecap="round" stroke-linejoin="round"/>
</svg>
