<svg width="100" height="100" viewBox="0 0 100 100" fill="none" xmlns="http://www.w3.org/2000/svg">
<path d="M50 100C77.6142 100 100 77.6143 100 50C100 22.3858 77.6142 0 50 0C22.3858 0 0 22.3858 0 50C0 77.6143 22.3858 100 50 100Z" fill="#038437"/>
<path d="M45.0454 69.0735C43.9205 69.0754 42.8256 68.7115 41.9256 68.0367L41.8698 67.9949L30.1191 59.006C29.5749 58.5888 29.1182 58.0684 28.7751 57.4747C28.4319 56.8809 28.2091 56.2255 28.1193 55.5456C28.0295 54.8658 28.0745 54.1749 28.2517 53.5124C28.4289 52.85 28.7348 52.2289 29.1521 51.6847C29.5693 51.1404 30.0896 50.6837 30.6834 50.3406C31.2771 49.9975 31.9326 49.7746 32.6124 49.6848C33.2923 49.595 33.9832 49.64 34.6456 49.8172C35.3081 49.9944 35.9292 50.3004 36.4734 50.7176L44.0845 56.5542L62.07 33.0901C62.4871 32.5461 63.0072 32.0896 63.6007 31.7466C64.1942 31.4036 64.8494 31.1809 65.529 31.0911C66.2085 31.0013 66.8991 31.0463 67.5613 31.2234C68.2235 31.4006 68.8443 31.7064 69.3883 32.1234L69.3898 32.1246L69.2782 32.2796L69.3928 32.1246C70.4903 32.9681 71.2084 34.2125 71.3894 35.5848C71.5704 36.9571 71.1996 38.3451 70.3584 39.4443L49.2035 67.0309C48.714 67.6666 48.0848 68.1809 47.3645 68.5341C46.6442 68.8872 45.8522 69.0697 45.05 69.0674L45.0454 69.0735Z" fill="white"/>
</svg>
