<svg width="40" height="40" viewBox="0 0 40 40" fill="none" xmlns="http://www.w3.org/2000/svg">
<path d="M20 40C31.0457 40 40 31.0457 40 20C40 8.95431 31.0457 0 20 0C8.9543 0 0 8.95431 0 20C0 31.0457 8.9543 40 20 40Z" fill="#038437"/>
<path d="M18.0179 27.6294C17.568 27.6302 17.13 27.4846 16.77 27.2147L16.7477 27.1979L12.0474 23.6024C11.8297 23.4355 11.647 23.2274 11.5098 22.9899C11.3725 22.7524 11.2834 22.4902 11.2475 22.2182C11.2116 21.9463 11.2296 21.67 11.3004 21.405C11.3713 21.14 11.4937 20.8916 11.6606 20.6739C11.8275 20.4562 12.0356 20.2735 12.2731 20.1362C12.5106 19.999 12.7728 19.9099 13.0447 19.8739C13.3167 19.838 13.593 19.856 13.858 19.9269C14.123 19.9978 14.3714 20.1201 14.5891 20.287L17.6336 22.6217L24.8278 13.236C24.9946 13.0184 25.2026 12.8358 25.44 12.6986C25.6774 12.5614 25.9395 12.4723 26.2113 12.4364C26.4832 12.4005 26.7594 12.4185 27.0243 12.4894C27.2892 12.5602 27.5375 12.6826 27.7551 12.8494L27.7557 12.8498L27.711 12.9118L27.7569 12.8498C28.1959 13.1872 28.4831 13.685 28.5555 14.2339C28.6279 14.7828 28.4796 15.338 28.1431 15.7777L19.6811 26.8124C19.4854 27.0666 19.2337 27.2724 18.9455 27.4136C18.6574 27.5549 18.3406 27.6279 18.0197 27.627L18.0179 27.6294Z" fill="white"/>
</svg>
