<svg width="24" height="24" viewBox="0 0 24 24" fill="none" xmlns="http://www.w3.org/2000/svg">
<path fill-rule="evenodd" clip-rule="evenodd" d="M7.50195 6H14.63C15.5242 6.00132 16.3814 6.35749 17.0132 6.99028C17.6451 7.62307 18 8.48076 18 9.375V18.75C18.7956 18.75 19.5587 18.4339 20.1213 17.8713C20.6839 17.3087 21 16.5456 21 15.75V6.108C21 4.603 19.875 3.297 18.336 3.168C18.1117 3.14979 17.8874 3.13312 17.663 3.118C17.4098 2.63029 17.0276 2.22147 16.558 1.93614C16.0884 1.65082 15.5494 1.49995 15 1.5H13.5C12.9505 1.49995 12.4115 1.65082 11.9419 1.93614C11.4723 2.22147 11.0901 2.63029 10.837 3.118C10.612 3.133 10.387 3.15 10.164 3.168C8.66195 3.295 7.55395 4.542 7.50195 6ZM13.5 3C13.1021 3 12.7206 3.15804 12.4393 3.43934C12.158 3.72064 12 4.10218 12 4.5H16.5C16.5 4.10218 16.3419 3.72064 16.0606 3.43934C15.7793 3.15804 15.3978 3 15 3H13.5Z" fill="#888888"/>
<path fill-rule="evenodd" clip-rule="evenodd" d="M3 9.375C3 8.339 3.84 7.5 4.875 7.5H14.625C15.661 7.5 16.5 8.34 16.5 9.375V20.625C16.5 21.66 15.66 22.5 14.625 22.5H4.875C4.37772 22.5 3.90081 22.3025 3.54917 21.9508C3.19754 21.5992 3 21.1223 3 20.625V9.375ZM6 12C6 11.8011 6.07902 11.6103 6.21967 11.4697C6.36032 11.329 6.55109 11.25 6.75 11.25H6.758C6.95691 11.25 7.14768 11.329 7.28833 11.4697C7.42898 11.6103 7.508 11.8011 7.508 12V12.008C7.508 12.2069 7.42898 12.3977 7.28833 12.5383C7.14768 12.679 6.95691 12.758 6.758 12.758H6.75C6.55109 12.758 6.36032 12.679 6.21967 12.5383C6.07902 12.3977 6 12.2069 6 12.008V12ZM8.25 12C8.25 11.8011 8.32902 11.6103 8.46967 11.4697C8.61032 11.329 8.80109 11.25 9 11.25H12.75C12.9489 11.25 13.1397 11.329 13.2803 11.4697C13.421 11.6103 13.5 11.8011 13.5 12C13.5 12.1989 13.421 12.3897 13.2803 12.5303C13.1397 12.671 12.9489 12.75 12.75 12.75H9C8.80109 12.75 8.61032 12.671 8.46967 12.5303C8.32902 12.3897 8.25 12.1989 8.25 12ZM6 15C6 14.8011 6.07902 14.6103 6.21967 14.4697C6.36032 14.329 6.55109 14.25 6.75 14.25H6.758C6.95691 14.25 7.14768 14.329 7.28833 14.4697C7.42898 14.6103 7.508 14.8011 7.508 15V15.008C7.508 15.2069 7.42898 15.3977 7.28833 15.5383C7.14768 15.679 6.95691 15.758 6.758 15.758H6.75C6.55109 15.758 6.36032 15.679 6.21967 15.5383C6.07902 15.3977 6 15.2069 6 15.008V15ZM8.25 15C8.25 14.8011 8.32902 14.6103 8.46967 14.4697C8.61032 14.329 8.80109 14.25 9 14.25H12.75C12.9489 14.25 13.1397 14.329 13.2803 14.4697C13.421 14.6103 13.5 14.8011 13.5 15C13.5 15.1989 13.421 15.3897 13.2803 15.5303C13.1397 15.671 12.9489 15.75 12.75 15.75H9C8.80109 15.75 8.61032 15.671 8.46967 15.5303C8.32902 15.3897 8.25 15.1989 8.25 15ZM6 18C6 17.8011 6.07902 17.6103 6.21967 17.4697C6.36032 17.329 6.55109 17.25 6.75 17.25H6.758C6.95691 17.25 7.14768 17.329 7.28833 17.4697C7.42898 17.6103 7.508 17.8011 7.508 18V18.008C7.508 18.2069 7.42898 18.3977 7.28833 18.5383C7.14768 18.679 6.95691 18.758 6.758 18.758H6.75C6.55109 18.758 6.36032 18.679 6.21967 18.5383C6.07902 18.3977 6 18.2069 6 18.008V18ZM8.25 18C8.25 17.8011 8.32902 17.6103 8.46967 17.4697C8.61032 17.329 8.80109 17.25 9 17.25H12.75C12.9489 17.25 13.1397 17.329 13.2803 17.4697C13.421 17.6103 13.5 17.8011 13.5 18C13.5 18.1989 13.421 18.3897 13.2803 18.5303C13.1397 18.671 12.9489 18.75 12.75 18.75H9C8.80109 18.75 8.61032 18.671 8.46967 18.5303C8.32902 18.3897 8.25 18.1989 8.25 18Z" fill="#888888"/>
</svg>
