<svg width="28" height="29" viewBox="0 0 28 29" fill="none" xmlns="http://www.w3.org/2000/svg">
<path d="M9.62502 22.375C9.62502 22.8391 9.44065 23.2843 9.11246 23.6124C8.78427 23.9406 8.33915 24.125 7.87502 24.125C7.41089 24.125 6.96577 23.9406 6.63758 23.6124C6.3094 23.2843 6.12502 22.8391 6.12502 22.375M9.62502 22.375C9.62502 21.9109 9.44065 21.4658 9.11246 21.1376C8.78427 20.8094 8.33915 20.625 7.87502 20.625C7.41089 20.625 6.96577 20.8094 6.63758 21.1376C6.3094 21.4658 6.12502 21.9109 6.12502 22.375M9.62502 22.375H16.625M6.12502 22.375H3.93752C3.58943 22.375 3.25559 22.2367 3.00944 21.9906C2.7633 21.7444 2.62502 21.4106 2.62502 21.0625V17.125M16.625 22.375H19.25M16.625 22.375V17.125M2.62502 17.125V8.21751C2.62317 7.89804 2.73989 7.58924 2.95261 7.35088C3.16532 7.11252 3.4589 6.96154 3.77652 6.92718C7.66508 6.52354 11.585 6.52354 15.4735 6.92718C16.1327 6.99484 16.625 7.55484 16.625 8.21751V9.33518M2.62502 17.125H16.625M22.75 22.375C22.75 22.8391 22.5656 23.2843 22.2375 23.6124C21.9093 23.9406 21.4642 24.125 21 24.125C20.5359 24.125 20.0908 23.9406 19.7626 23.6124C19.4344 23.2843 19.25 22.8391 19.25 22.375M22.75 22.375C22.75 21.9109 22.5656 21.4658 22.2375 21.1376C21.9093 20.8094 21.4642 20.625 21 20.625C20.5359 20.625 20.0908 20.8094 19.7626 21.1376C19.4344 21.4658 19.25 21.9109 19.25 22.375M22.75 22.375H24.0625C24.787 22.375 25.3797 21.787 25.3342 21.0637C25.0998 17.2109 23.8022 13.4985 21.5857 10.3385C21.3746 10.0425 21.0989 9.79836 20.7796 9.62454C20.4602 9.45073 20.1056 9.35178 19.7424 9.33518H16.625M16.625 9.33518V17.125" stroke="#9D5C00" stroke-width="1.5" stroke-linecap="round" stroke-linejoin="round"/>
</svg>
