<svg width="40" height="40" viewBox="0 0 40 40" fill="none" xmlns="http://www.w3.org/2000/svg">
<path d="M3.78833 9.375C5.15726 8.16423 6.92246 7.49716 8.75 7.5H31.25C33.1517 7.5 34.8883 8.20833 36.2117 9.375C36.0594 8.16656 35.4713 7.05525 34.5577 6.24971C33.6442 5.44416 32.468 4.99978 31.25 5H8.75C7.53201 4.99978 6.35582 5.44416 5.44226 6.24971C4.52869 7.05525 3.94058 8.16656 3.78833 9.375ZM3.78833 14.375C5.15726 13.1642 6.92246 12.4972 8.75 12.5H31.25C33.1517 12.5 34.8883 13.2083 36.2117 14.375C36.0594 13.1666 35.4713 12.0553 34.5577 11.2497C33.6442 10.4442 32.468 9.99978 31.25 10H8.75C7.53201 9.99978 6.35582 10.4442 5.44226 11.2497C4.52869 12.0553 3.94058 13.1666 3.78833 14.375ZM8.75 15C7.42392 15 6.15215 15.5268 5.21447 16.4645C4.27678 17.4021 3.75 18.6739 3.75 20V30C3.75 31.3261 4.27678 32.5979 5.21447 33.5355C6.15215 34.4732 7.42392 35 8.75 35H31.25C32.5761 35 33.8479 34.4732 34.7855 33.5355C35.7232 32.5979 36.25 31.3261 36.25 30V20C36.25 18.6739 35.7232 17.4021 34.7855 16.4645C33.8479 15.5268 32.5761 15 31.25 15H25C24.6685 15 24.3505 15.1317 24.1161 15.3661C23.8817 15.6005 23.75 15.9185 23.75 16.25C23.75 17.2446 23.3549 18.1984 22.6516 18.9016C21.9484 19.6049 20.9946 20 20 20C19.0054 20 18.0516 19.6049 17.3483 18.9016C16.6451 18.1984 16.25 17.2446 16.25 16.25C16.25 15.9185 16.1183 15.6005 15.8839 15.3661C15.6495 15.1317 15.3315 15 15 15H8.75Z" fill="#9D5C00"/>
</svg>
