<svg width="41" height="40" viewBox="0 0 41 40" fill="none" xmlns="http://www.w3.org/2000/svg">
<path fill-rule="evenodd" clip-rule="evenodd" d="M20.5 0C9.45385 0 0.5 8.95385 0.5 20C0.5 31.0462 9.45385 40 20.5 40C31.5462 40 40.5 31.0462 40.5 20C40.5 8.95385 31.5462 0 20.5 0ZM16.9718 14.2974C16.8309 14.1463 16.6611 14.025 16.4724 13.941C16.2837 13.8569 16.0799 13.8117 15.8734 13.808C15.6668 13.8044 15.4616 13.8424 15.2701 13.9197C15.0785 13.9971 14.9045 14.1123 14.7584 14.2584C14.6123 14.4045 14.4971 14.5785 14.4197 14.7701C14.3424 14.9616 14.3044 15.1668 14.308 15.3734C14.3117 15.5799 14.3569 15.7837 14.441 15.9724C14.525 16.1611 14.6463 16.3309 14.7974 16.4718L18.3256 20L14.7974 23.5282C14.6463 23.6691 14.525 23.8389 14.441 24.0276C14.3569 24.2163 14.3117 24.4201 14.308 24.6266C14.3044 24.8332 14.3424 25.0384 14.4197 25.2299C14.4971 25.4215 14.6123 25.5955 14.7584 25.7416C14.9045 25.8877 15.0785 26.0029 15.2701 26.0803C15.4616 26.1576 15.6668 26.1956 15.8734 26.192C16.0799 26.1883 16.2837 26.1431 16.4724 26.059C16.6611 25.975 16.8309 25.8537 16.9718 25.7026L20.5 22.1744L24.0282 25.7026C24.1691 25.8537 24.3389 25.975 24.5276 26.059C24.7163 26.1431 24.9201 26.1883 25.1266 26.192C25.3332 26.1956 25.5384 26.1576 25.7299 26.0803C25.9215 26.0029 26.0955 25.8877 26.2416 25.7416C26.3877 25.5955 26.5029 25.4215 26.5803 25.2299C26.6576 25.0384 26.6956 24.8332 26.692 24.6266C26.6883 24.4201 26.6431 24.2163 26.559 24.0276C26.475 23.8389 26.3537 23.6691 26.2026 23.5282L22.6744 20L26.2026 16.4718C26.3537 16.3309 26.475 16.1611 26.559 15.9724C26.6431 15.7837 26.6883 15.5799 26.692 15.3734C26.6956 15.1668 26.6576 14.9616 26.5803 14.7701C26.5029 14.5785 26.3877 14.4045 26.2416 14.2584C26.0955 14.1123 25.9215 13.9971 25.7299 13.9197C25.5384 13.8424 25.3332 13.8044 25.1266 13.808C24.9201 13.8117 24.7163 13.8569 24.5276 13.941C24.3389 14.025 24.1691 14.1463 24.0282 14.2974L20.5 17.8256L16.9718 14.2974Z" fill="#CA0814"/>
</svg>
