<svg width="28" height="20" viewBox="0 0 28 20" fill="none" xmlns="http://www.w3.org/2000/svg">
<path d="M14.0078 19.3492H13.9812C13.8985 19.3492 5.62784 19.3332 3.54118 18.7665C2.39374 18.4574 1.49764 17.5608 1.18918 16.4132C0.813947 14.2963 0.632751 12.1496 0.647843 9.99984C0.638149 7.84652 0.824248 5.69679 1.20384 3.57717C1.52079 2.42852 2.41295 1.52777 3.55851 1.19984C5.58784 0.666504 13.6305 0.666504 13.9718 0.666504H13.9998C14.0838 0.666504 22.3758 0.682504 24.4412 1.24917C25.5862 1.55985 26.4805 2.45463 26.7905 3.59984C27.1777 5.72456 27.3594 7.88162 27.3332 10.0412C27.3425 12.1919 27.156 14.339 26.7758 16.4558C26.4634 17.602 25.5667 18.4967 24.4198 18.8065C22.3932 19.3438 14.3492 19.3492 14.0078 19.3492ZM11.3412 6.0065L11.3345 14.0065L18.2838 10.0065L11.3412 6.0065Z" fill="#0B0A0A"/>
</svg>
